<?xml version="1.0" standalone="no"?>
<!DOCTYPE svg PUBLIC "-//W3C//DTD SVG 20010904//EN"
 "http://www.w3.org/TR/2001/REC-SVG-20010904/DTD/svg10.dtd">
<svg version="1.0" xmlns="http://www.w3.org/2000/svg"
 width="271.000000pt" height="561.000000pt" viewBox="0 0 271.000000 561.000000"
 preserveAspectRatio="xMidYMid meet">

<g transform="translate(0.000000,561.000000) scale(0.100000,-0.100000)"
fill="#000000" stroke="none">
<path d="M334 5075 c-9 -14 -13 -32 -9 -45 15 -47 86 -50 107 -5 27 59 -62
105 -98 50z"/>
<path d="M1022 5088 c-18 -18 -14 -63 6 -81 38 -34 92 -8 92 44 0 33 -18 49
-55 49 -17 0 -36 -5 -43 -12z"/>
<path d="M1704 5075 c-9 -14 -13 -32 -9 -45 15 -47 86 -50 107 -5 27 59 -62
105 -98 50z"/>
<path d="M2392 5088 c-18 -18 -14 -63 6 -81 50 -46 114 13 82 74 -12 22 -68
27 -88 7z"/>
<path d="M352 4543 c-7 -3 -18 -16 -23 -30 -22 -59 59 -102 95 -51 21 30 20
44 -4 68 -20 20 -42 24 -68 13z"/>
<path d="M1027 4532 c-36 -39 -13 -94 38 -94 34 0 55 19 55 52 0 52 -60 79
-93 42z"/>
<path d="M1710 4530 c-24 -24 -25 -38 -4 -68 29 -42 104 -17 104 35 0 20 -38
53 -60 53 -11 0 -29 -9 -40 -20z"/>
<path d="M2397 4532 c-21 -23 -22 -66 -2 -82 8 -7 27 -12 42 -12 50 0 72 67
31 96 -29 21 -51 20 -71 -2z"/>
<path d="M333 3964 c-15 -24 -15 -29 -2 -53 11 -20 22 -26 49 -26 27 0 38 6
49 26 13 24 13 29 -2 53 -12 18 -26 26 -47 26 -21 0 -35 -8 -47 -26z"/>
<path d="M1026 3974 c-20 -20 -20 -58 0 -78 34 -34 94 -9 94 39 0 30 -25 55
-55 55 -13 0 -31 -7 -39 -16z"/>
<path d="M1703 3964 c-15 -24 -15 -29 -2 -53 11 -20 22 -26 49 -26 27 0 38 6
49 26 13 24 13 29 -2 53 -12 18 -26 26 -47 26 -21 0 -35 -8 -47 -26z"/>
<path d="M2396 3974 c-9 -8 -16 -26 -16 -39 0 -50 60 -73 93 -37 34 37 11 92
-38 92 -13 0 -31 -7 -39 -16z"/>
<path d="M348 3428 c-9 -7 -19 -23 -23 -35 -9 -32 36 -77 68 -68 47 15 61 61
27 95 -23 23 -49 26 -72 8z"/>
<path d="M1032 3424 c-32 -22 -30 -69 4 -91 24 -15 29 -15 53 -2 36 20 41 71
9 93 -28 20 -38 20 -66 0z"/>
<path d="M1709 3419 c-15 -15 -19 -28 -14 -47 8 -32 13 -38 42 -46 32 -10 77
35 68 67 -15 48 -61 61 -96 26z"/>
<path d="M2402 3424 c-32 -22 -30 -69 4 -91 24 -15 29 -15 53 -2 36 20 41 71
9 93 -28 20 -38 20 -66 0z"/>
<path d="M333 2854 c-15 -24 -15 -29 -2 -53 11 -20 22 -26 49 -26 27 0 38 6
49 26 13 24 13 29 -2 53 -12 18 -26 26 -47 26 -21 0 -35 -8 -47 -26z"/>
<path d="M1026 2864 c-20 -20 -20 -58 0 -78 34 -34 94 -9 94 39 0 30 -25 55
-55 55 -13 0 -31 -7 -39 -16z"/>
<path d="M1703 2854 c-15 -24 -15 -29 -2 -53 11 -20 22 -26 49 -26 27 0 38 6
49 26 13 24 13 29 -2 53 -12 18 -26 26 -47 26 -21 0 -35 -8 -47 -26z"/>
<path d="M2396 2864 c-34 -34 -9 -94 39 -94 50 0 73 60 37 93 -23 21 -56 22
-76 1z"/>
<path d="M344 2305 c-18 -19 -23 -31 -19 -48 15 -47 61 -61 95 -27 26 26 25
46 -5 75 -30 31 -40 31 -71 0z"/>
<path d="M1039 2316 c-35 -17 -34 -75 2 -95 24 -13 29 -13 53 2 60 40 10 126
-55 93z"/>
<path d="M1715 2305 c-14 -13 -25 -31 -25 -40 0 -21 36 -55 60 -55 24 0 60 34
60 55 0 18 -44 65 -60 65 -6 0 -22 -11 -35 -25z"/>
<path d="M2409 2316 c-45 -22 -29 -106 20 -106 30 0 61 30 61 59 0 44 -41 67
-81 47z"/>
<path d="M340 1750 c-24 -24 -25 -38 -4 -68 29 -42 104 -17 104 35 0 20 -38
53 -60 53 -11 0 -29 -9 -40 -20z"/>
<path d="M1027 1752 c-20 -22 -22 -63 -5 -80 20 -20 76 -15 88 7 15 29 12 56
-8 74 -24 22 -55 21 -75 -1z"/>
<path d="M1710 1750 c-24 -24 -25 -38 -4 -68 29 -42 104 -17 104 35 0 20 -38
53 -60 53 -11 0 -29 -9 -40 -20z"/>
<path d="M2397 1752 c-20 -22 -22 -63 -5 -80 20 -20 76 -15 88 7 15 29 12 56
-8 74 -24 22 -55 21 -75 -1z"/>
<path d="M334 1185 c-9 -14 -13 -32 -9 -45 15 -47 86 -50 107 -5 27 59 -62
105 -98 50z"/>
<path d="M1020 1191 c-15 -29 -12 -56 8 -74 50 -46 114 13 82 74 -7 13 -21 19
-45 19 -24 0 -38 -6 -45 -19z"/>
<path d="M1704 1185 c-9 -14 -13 -32 -9 -45 15 -47 86 -50 107 -5 27 59 -62
105 -98 50z"/>
<path d="M2392 1198 c-18 -18 -14 -63 6 -81 50 -46 114 13 82 74 -12 22 -68
27 -88 7z"/>
<path d="M348 648 c-30 -24 -31 -56 -4 -83 30 -30 36 -31 70 -4 31 24 33 52 6
79 -23 23 -49 26 -72 8z"/>
<path d="M1032 644 c-32 -22 -30 -69 4 -91 24 -15 29 -15 53 -2 36 20 41 71 9
93 -28 20 -38 20 -66 0z"/>
<path d="M1710 640 c-11 -11 -20 -27 -20 -35 0 -18 44 -65 60 -65 16 0 60 47
60 65 0 21 -36 55 -60 55 -11 0 -29 -9 -40 -20z"/>
<path d="M2402 644 c-31 -21 -30 -69 2 -90 58 -37 121 51 64 90 -28 20 -38 20
-66 0z"/>
<path d="M334 75 c-14 -21 -15 -31 -6 -50 10 -21 19 -25 52 -25 33 0 42 4 52
25 16 35 -12 75 -52 75 -21 0 -35 -8 -46 -25z"/>
<path d="M1026 84 c-17 -16 -20 -41 -10 -68 9 -22 89 -22 98 0 17 44 -7 84
-49 84 -13 0 -31 -7 -39 -16z"/>
<path d="M1704 75 c-14 -21 -15 -31 -6 -50 10 -21 19 -25 52 -25 33 0 42 4 52
25 16 35 -12 75 -52 75 -21 0 -35 -8 -46 -25z"/>
<path d="M2396 84 c-17 -16 -20 -41 -10 -68 9 -22 89 -22 98 0 17 44 -7 84
-49 84 -13 0 -31 -7 -39 -16z"/>
</g>
</svg>
